<svg xmlns="http://www.w3.org/2000/svg" xmlns:xlink="http://www.w3.org/1999/xlink" height="2000px" id="Layer_1" style="enable-background:new 0 0 1721.43 2000;" version="1.1" viewBox="0 0 1721.43 2000" width="1721.43px" x="0px" y="0px" xml:space="preserve">
<style type="text/css">
	.st0{fill:none;}
	.st1{opacity:0.25;fill:none;stroke:#010101;stroke-width:0.4;stroke-miterlimit:10;}
	.st2{fill:#FFFFFF;}
	.st3{fill:#E7EAEC;}
	.st4{fill:url(#SVGID_1_);stroke:#C8C8C8;stroke-width:2;stroke-linecap:round;stroke-linejoin:round;stroke-miterlimit:10;}
	
		.st5{fill:url(#SVGID_00000139980333417735022830000001458522079681920402_);stroke:#C8C8C8;stroke-width:2;stroke-linecap:round;stroke-linejoin:round;stroke-miterlimit:10;}
	.st6{fill:none;stroke:#000000;stroke-width:1.3;stroke-linecap:round;stroke-linejoin:round;stroke-miterlimit:10;}
	.st7{fill:#FFFFFF;stroke:#000000;stroke-width:1.3;stroke-linecap:round;stroke-linejoin:round;stroke-miterlimit:10;}
	.st8{fill:none;stroke:#000000;stroke-width:1.3;stroke-linecap:round;stroke-linejoin:round;}
	.st9{fill:none;stroke:#000000;stroke-width:1.3;stroke-linecap:round;stroke-linejoin:round;stroke-dasharray:10.0559,10.0559;}
	.st10{fill:none;stroke:#000000;stroke-width:1.3;stroke-linecap:round;stroke-linejoin:round;stroke-dasharray:11.1077,11.1077;}
	.st11{fill:none;stroke:#000000;stroke-width:1.3;stroke-linecap:round;stroke-linejoin:round;stroke-dasharray:10.0575,10.0575;}
	.st12{font-family: 'Arial-BoldMT','Arial'; font-weight:bold;}
	.st13{font-size:116.0909px;}
	.st14{font-size:96.7424px;}
	.st15{font-family: 'ArialMT','Arial';}
	.st16{font-size:40px;}
</style>
<pattern height="14.57" id="New_Pattern_Swatch_2" patternUnits="userSpaceOnUse" style="overflow:visible;" viewBox="7.49 -22.06 14.57 14.57" width="14.57" x="-3480.05" y="2159.77">
	<g>
		<rect class="st0" height="14.57" width="14.57" x="7.49" y="-22.06" />
		<g>
			<rect class="st1" height="7.29" width="7.29" x="14.77" y="-7.49" />
		</g>
		<g>
			<rect class="st1" height="7.29" width="7.29" x="0.2" y="-7.49" />
		</g>
		<g>
			<rect class="st1" height="7.29" width="7.29" x="22.06" y="-14.77" />
		</g>
		<g>
			<rect class="st1" height="7.29" width="7.29" x="7.49" y="-14.77" />
			<rect class="st1" height="7.29" width="7.29" x="14.77" y="-22.06" />
		</g>
		<g>
			<rect class="st1" height="7.29" width="7.29" x="0.2" y="-22.06" />
		</g>
		<g>
			<rect class="st1" height="7.29" width="7.29" x="22.06" y="-29.35" />
		</g>
		<g>
			<rect class="st1" height="7.29" width="7.29" x="7.49" y="-29.35" />
		</g>
	</g>
</pattern>
<path class="st2" d="M1450.96,319.38h170.47V349v43.88v351.02  v563.82v351.01v43.88h-293.32c0,0.36-0.29,0.65-0.65,0.65h-12.52c-0.17,51.84-20.2,100.78-56.47,137.86  c-36.42,37.24-85.15,58.38-137.22,59.54c0,0-0.01,0-0.01,0c-0.09,0-0.17-0.02-0.25-0.05c-0.04-0.02-0.07-0.05-0.11-0.07  c-0.03-0.02-0.07-0.04-0.09-0.06c-0.04-0.03-0.06-0.08-0.08-0.12c-0.02-0.03-0.04-0.05-0.06-0.08c-0.02-0.05-0.02-0.1-0.03-0.15  c-0.01-0.03-0.02-0.06-0.02-0.1c0,0,0,0,0-0.01c0,0,0-0.01,0-0.01v-196.75h-12.51c-0.36,0-0.65-0.29-0.65-0.65H173.49H100v-243.52  v-394.89v-78.98v-43.23c-0.36,0-0.65-0.29-0.65-0.65V743.89c0-0.36,0.29-0.65,0.65-0.65V392.88V100h85.1c0-0.36,0.29-0.65,0.65-0.65  h588.86c0.36,0,0.65,0.29,0.65,0.65h43.23v34v185.38h126.59c0-0.36,0.29-0.65,0.65-0.65h229.7V200.08c0,0,0-0.01,0-0.01  c0-0.04,0.01-0.07,0.02-0.11c0.01-0.05,0.01-0.1,0.03-0.15c0,0,0,0,0-0.01c0.01-0.02,0.03-0.04,0.04-0.06  c0.03-0.05,0.06-0.1,0.1-0.14c0.03-0.03,0.07-0.04,0.1-0.07c0.04-0.02,0.07-0.05,0.11-0.07c0.05-0.02,0.1-0.02,0.15-0.03  c0.03,0,0.06-0.02,0.09-0.02h263.24c0,0,0,0,0,0h0.02c0.03,0,0.06,0.01,0.09,0.02c0.05,0.01,0.1,0.01,0.15,0.03  c0.04,0.02,0.08,0.05,0.12,0.07c0.03,0.02,0.06,0.04,0.09,0.06c0.04,0.04,0.07,0.09,0.1,0.14c0.01,0.02,0.03,0.03,0.04,0.06  c0,0,0,0,0,0.01c0.02,0.05,0.02,0.1,0.03,0.15c0.01,0.04,0.02,0.07,0.02,0.11c0,0,0,0.01,0,0.01v118.65h10.32  C1450.67,318.73,1450.96,319.03,1450.96,319.38z" id="background" />
<g id="floor">
	<polygon class="st3" points="792.16,392.88 792.16,320.48 784.48,320.48 784.48,134 184.46,134 184.46,320.48 173.49,320.48    173.49,1658.73 1577.55,1658.73 1577.55,392.88  " />
	<pattern id="SVGID_1_" patternTransform="matrix(7.7394 0 0 7.7394 25601.0723 59162.2578)" xlink:href="#New_Pattern_Swatch_2">
	</pattern>
	<rect class="st4" height="186.48" width="600.02" x="184.46" y="134" />
	
		<pattern id="SVGID_00000144336673655403402760000006111958344304479144_" patternTransform="matrix(7.7394 0 0 7.7394 25601.0723 59162.2578)" xlink:href="#New_Pattern_Swatch_2">
	</pattern>
	
		<polygon points="   177.88,1244.09 836.03,1244.09 836.03,1658.73 243.7,1658.73 243.7,1430.57 177.88,1430.57  " style="fill:url(#SVGID_00000144336673655403402760000006111958344304479144_);stroke:#C8C8C8;stroke-width:2;stroke-linecap:round;stroke-linejoin:round;stroke-miterlimit:10;" />
	<g id="LINE_00000093875081452563407920000001641390934106487188_">
		<line class="st6" x1="605.38" x2="265.64" y1="370.01" y2="370.01" />
	</g>
	<g id="LINE_00000016770092986020743190000016800105668387879851_">
		<line class="st6" x1="605.38" x2="265.64" y1="349" y2="349" />
	</g>
	<g id="LINE_00000077320236479440342470000009993326977292649389_">
		<line class="st6" x1="592.31" x2="290.55" y1="358.93" y2="358.93" />
	</g>
	<g id="LINE_00000166657312848486428860000007836934568888711324_">
		<line class="st6" x1="592.31" x2="592.31" y1="370.01" y2="349" />
	</g>
	<g id="LINE_00000134228465379181917840000000586676864548477572_">
		<line class="st6" x1="605.38" x2="265.64" y1="370.01" y2="370.01" />
	</g>
	<g id="LINE_00000010990988519809425280000010541242111946845591_">
		<line class="st6" x1="265.64" x2="605.38" y1="320.48" y2="320.48" />
	</g>
	<g id="LINE_00000123434479063036798400000012451109530908724667_">
		<line class="st6" x1="605.38" x2="605.38" y1="370.01" y2="320.48" />
	</g>
	<g id="LINE_00000016774832595337176740000007843831865777015191_">
		<line class="st6" x1="100" x2="100" y1="941.34" y2="743.89" />
	</g>
	<g id="LINE_00000011736145635884767250000006274034565686475908_">
		<line class="st6" x1="149.36" x2="149.36" y1="743.89" y2="941.34" />
	</g>
	<g id="LINE_00000136390661471126574810000014833542051493405878_">
		<line class="st6" x1="129.62" x2="149.36" y1="930.37" y2="930.37" />
	</g>
	<g id="LINE_00000127003825597131589010000018302016086110731680_">
		<line class="st6" x1="129.62" x2="149.36" y1="754.86" y2="754.86" />
	</g>
	<g id="LINE_00000137830649754122928680000011530037227716977842_">
		<line class="st6" x1="129.62" x2="129.62" y1="743.89" y2="941.34" />
	</g>
	<g id="LINE_00000085956107595717493370000002193153267522705549_">
		<line class="st6" x1="139.49" x2="138.94" y1="767.15" y2="918.08" />
	</g>
	<g id="LINE_00000160168829937399896700000012825778300591578516_">
		<line class="st6" x1="149.36" x2="129.62" y1="767.15" y2="767.15" />
	</g>
	<g id="LINE_00000082358056087603031670000013406323429184659849_">
		<line class="st6" x1="129.62" x2="149.36" y1="930.37" y2="930.37" />
	</g>
	<g id="LINE_00000028292270331656670610000014566699430940029604_">
		<line class="st6" x1="149.36" x2="129.62" y1="918.08" y2="918.08" />
	</g>
	<g id="LINE_00000093892985881195950680000014441110715562251916_">
		<line class="st6" x1="173.49" x2="173.49" y1="743.89" y2="941.34" />
	</g>
	<g id="LINE_00000106147527655655150760000010655446020818117548_">
		<line class="st6" x1="774.61" x2="185.75" y1="134" y2="134" />
	</g>
	<g id="LINE_00000140720825710153545930000016195953843936766385_">
		<line class="st6" x1="764.03" x2="764.03" y1="127.42" y2="107.68" />
	</g>
	<g id="LINE_00000129919542763700640910000008778289424176616853_">
		<line class="st6" x1="196.72" x2="196.72" y1="127.42" y2="107.68" />
	</g>
	<g id="LINE_00000064317853012193211060000008600598253469130898_">
		<line class="st6" x1="483.92" x2="613.91" y1="118.1" y2="118.1" />
	</g>
	<g id="LINE_00000084499381642567513450000001191083327347505844_">
		<line class="st6" x1="629.26" x2="751.74" y1="118.1" y2="118.1" />
	</g>
	<g id="LINE_00000000901812587473926710000000231908367126144648_">
		<line class="st6" x1="209.01" x2="324.29" y1="118.1" y2="118.1" />
	</g>
	<g id="LINE_00000029763707328171681070000001175326200837788852_">
		<line class="st6" x1="209.01" x2="209.01" y1="107.68" y2="127.42" />
	</g>
	<g id="LINE_00000142135410202028432860000000242050045835180446_">
		<line class="st6" x1="764.03" x2="764.03" y1="127.42" y2="107.68" />
	</g>
	<g id="LINE_00000008833294702058771140000005670567379586220438_">
		<line class="st6" x1="751.74" x2="751.74" y1="107.68" y2="127.42" />
	</g>
	<g id="LINE_00000132796723475528398340000015549295775908305842_">
		<line class="st6" x1="468.57" x2="468.57" y1="127.42" y2="107.68" />
	</g>
	<g id="LINE_00000154425273875127598340000012313502769596646023_">
		<line class="st6" x1="468.57" x2="483.92" y1="107.68" y2="107.68" />
	</g>
	<g id="LINE_00000177443463199267982720000003986180470068462991_">
		<line class="st6" x1="483.92" x2="483.92" y1="107.68" y2="127.42" />
	</g>
	<g id="LINE_00000045613730531443111190000000140060007367162507_">
		<line class="st6" x1="483.92" x2="468.57" y1="127.42" y2="127.42" />
	</g>
	<g id="LINE_00000174560237251615019410000000856486637101973894_">
		<line class="st6" x1="185.75" x2="774.61" y1="100" y2="100" />
	</g>
	<g id="LINE_00000073698783406991338670000016809626473115628221_">
		<line class="st6" x1="324.29" x2="324.29" y1="127.42" y2="107.68" />
	</g>
	<g id="LINE_00000065760537940470330660000010634833551135939238_">
		<line class="st6" x1="324.29" x2="339.65" y1="107.68" y2="107.68" />
	</g>
	<g id="LINE_00000089532398848001223850000017427285120381409204_">
		<line class="st6" x1="339.65" x2="339.65" y1="107.68" y2="127.42" />
	</g>
	<g id="LINE_00000168823618041323249780000014450457064432942743_">
		<line class="st6" x1="339.65" x2="324.29" y1="127.42" y2="127.42" />
	</g>
	<g id="LINE_00000163776319790204666430000002283037912251163037_">
		<line class="st6" x1="339.65" x2="468.57" y1="117.55" y2="117.55" />
	</g>
	<g id="LWPOLYLINE_00000080185122392623718150000012468462185316410805_">
		<line class="st6" x1="324.29" x2="185.75" y1="127.42" y2="127.42" />
	</g>
	<g id="LWPOLYLINE_00000143604725420345682740000009644804018630376095_">
		<line class="st6" x1="339.65" x2="468.57" y1="127.42" y2="127.42" />
	</g>
	<g id="LWPOLYLINE_00000114043498805399564260000000869535984134061964_">
		<line class="st6" x1="483.92" x2="774.61" y1="127.42" y2="127.42" />
	</g>
	<g id="LWPOLYLINE_00000023277747184929661200000006390904478933139348_">
		<line class="st6" x1="324.29" x2="185.75" y1="107.68" y2="107.68" />
	</g>
	<g id="LWPOLYLINE_00000106859546699446083450000009435208217798081930_">
		<line class="st6" x1="339.65" x2="468.57" y1="107.68" y2="107.68" />
	</g>
	<g id="LWPOLYLINE_00000075840774432663422220000005392150893447585413_">
		<line class="st6" x1="483.92" x2="774.61" y1="107.68" y2="107.68" />
	</g>
	<g id="LINE_00000014601580462969807000000012132295002733496454_">
		<line class="st6" x1="613.91" x2="613.91" y1="127.42" y2="107.68" />
	</g>
	<g id="LINE_00000141446121108344617460000016562124942240726160_">
		<line class="st6" x1="613.91" x2="629.26" y1="107.68" y2="107.68" />
	</g>
	<g id="LINE_00000110465684037353702150000009682687095109582506_">
		<line class="st6" x1="629.26" x2="629.26" y1="107.68" y2="127.42" />
	</g>
	<g id="LINE_00000095326459045695974960000009655388522983084932_">
		<line class="st6" x1="629.26" x2="613.91" y1="127.42" y2="127.42" />
	</g>
	<g id="LINE_00000065057881465804393100000006822018889160139660_">
		<line class="st6" x1="1450.31" x2="945.73" y1="392.88" y2="392.88" />
	</g>
	<g id="LINE_00000132797483593406530580000001277147856036850570_">
		<line class="st6" x1="1439.73" x2="1439.73" y1="368.75" y2="349" />
	</g>
	<g id="LINE_00000034777447662987656630000016452576052017775774_">
		<line class="st6" x1="956.7" x2="956.7" y1="368.75" y2="349" />
	</g>
	<g id="LINE_00000044155253149109269610000004560478148314702468_">
		<line class="st6" x1="1284.68" x2="1427.45" y1="359.42" y2="359.42" />
	</g>
	<g id="LINE_00000028294794345473000890000007620797895537420200_">
		<line class="st6" x1="968.98" x2="1111.36" y1="359.42" y2="359.42" />
	</g>
	<g id="LINE_00000149377987561718252280000005879771672382407563_">
		<line class="st6" x1="968.98" x2="968.98" y1="349" y2="368.75" />
	</g>
	<g id="LINE_00000062182743030092328350000018380172676325120896_">
		<line class="st6" x1="1439.73" x2="1439.73" y1="368.75" y2="349" />
	</g>
	<g id="LINE_00000045614444041837915530000004724697302766327178_">
		<line class="st6" x1="1427.45" x2="1427.45" y1="349" y2="368.75" />
	</g>
	<g id="LINE_00000107589126384297433400000008372765871685685933_">
		<line class="st6" x1="1269.32" x2="1269.32" y1="368.75" y2="349" />
	</g>
	<g id="LINE_00000099636308899372255270000012677789490366798527_">
		<line class="st6" x1="1269.32" x2="1284.68" y1="349" y2="349" />
	</g>
	<g id="LINE_00000119108197330328541480000001748623265335796870_">
		<line class="st6" x1="1284.68" x2="1284.68" y1="349" y2="368.75" />
	</g>
	<g id="LINE_00000124884560221663326190000008584791125228760232_">
		<line class="st6" x1="1284.68" x2="1269.32" y1="368.75" y2="368.75" />
	</g>
	<g id="LINE_00000093897187267769692210000010431052651857653642_">
		<line class="st6" x1="945.73" x2="1450.31" y1="319.38" y2="319.38" />
	</g>
	<g id="LINE_00000161605272734410838520000005799555278508604033_">
		<line class="st6" x1="1111.36" x2="1111.36" y1="368.75" y2="349" />
	</g>
	<g id="LINE_00000054264077564326436660000017859372013732288904_">
		<line class="st6" x1="1111.36" x2="1126.72" y1="349" y2="349" />
	</g>
	<g id="LINE_00000042706889802003763800000013004929577753080226_">
		<line class="st6" x1="1126.72" x2="1126.72" y1="349" y2="368.75" />
	</g>
	<g id="LINE_00000119813983124106491260000007878524547417044118_">
		<line class="st6" x1="1126.72" x2="1111.36" y1="368.75" y2="368.75" />
	</g>
	<g id="LINE_00000008141767410845270980000004641416052919132337_">
		<line class="st6" x1="1126.72" x2="1269.32" y1="358.87" y2="358.87" />
	</g>
	<g id="LWPOLYLINE_00000026140159138984022500000007665970351253815981_">
		<line class="st6" x1="1111.36" x2="945.73" y1="368.75" y2="368.75" />
	</g>
	<g id="LWPOLYLINE_00000021802065116860022020000009147656235643108996_">
		<line class="st6" x1="1126.72" x2="1269.32" y1="368.75" y2="368.75" />
	</g>
	<g id="LWPOLYLINE_00000053522264879622421510000002734946002323442348_">
		<line class="st6" x1="1284.68" x2="1450.31" y1="368.75" y2="368.75" />
	</g>
	<g id="LWPOLYLINE_00000096018723867694100860000015202111009998159803_">
		<line class="st6" x1="1111.36" x2="945.73" y1="349" y2="349" />
	</g>
	<g id="LWPOLYLINE_00000018918905622597472990000011835866464162115252_">
		<line class="st6" x1="1126.72" x2="1269.32" y1="349" y2="349" />
	</g>
	<g id="LWPOLYLINE_00000155140732550948141190000016188315088290906755_">
		<line class="st6" x1="1284.68" x2="1450.31" y1="349" y2="349" />
	</g>
	<g id="LINE_00000125594376875396576920000016556102673988367025_">
		<line class="st6" x1="277.48" x2="277.48" y1="370.01" y2="349" />
	</g>
	<g id="LINE_00000085937738126443875330000007142212042150378664_">
		<line class="st6" x1="290.55" x2="290.55" y1="370.03" y2="349.02" />
	</g>
	<g id="ARC_00000176746311537736244290000017469153704668327559_">
		<path class="st6" d="M1121.23,1900c107.31-2.39,193.06-90.06,193.06-197.4" />
	</g>
	<g id="LINE_00000103255494823218179800000011658872235550534843_">
		<line class="st6" x1="1116.85" x2="1108.07" y1="1685.05" y2="1685.05" />
	</g>
	<g id="LINE_00000137811132346851667080000015653167286296429962_">
		<line class="st6" x1="1121.23" x2="1121.23" y1="1702.6" y2="1900" />
	</g>
	<g id="LWPOLYLINE_00000077290148013300025540000002574291985353033900_">
		<rect class="st6" height="17.55" width="13.16" x="1314.29" y="1685.05" />
	</g>
	<g id="LWPOLYLINE_00000041995102138919036720000010422956558677397414_">
		<rect class="st6" height="17.55" width="13.16" x="1108.07" y="1685.05" />
	</g>
	<g id="LWPOLYLINE_00000015312436064360439950000007414612695414851773_">
		<rect class="st6" height="10.97" width="17.55" x="836.03" y="1588.52" />
	</g>
	<g id="LWPOLYLINE_00000036970129662741985200000008902798218833213625_">
		<rect class="st6" height="10.97" width="17.55" x="836.03" y="1423.98" />
	</g>
	<g id="LINE_00000074442492479384442400000018017423649885177534_">
		<line class="st6" x1="853.58" x2="836.03" y1="1599.49" y2="1599.49" />
	</g>
	<g id="LINE_00000108994072406321129320000007328154915504787868_">
		<line class="st6" x1="853.58" x2="836.03" y1="1423.98" y2="1423.98" />
	</g>
	<g id="LINE_00000010279908440110370880000016702176268044342696_">
		<line class="st6" x1="853.58" x2="1007.15" y1="1588.52" y2="1588.52" />
	</g>
	<g id="ARC_00000124841952044380121670000009637585433876135599_">
		<path class="st6" d="M853.58,1434.95c82.26,0.05,149.91,64.81,153.57,146.99" />
	</g>
	<g id="LINE_00000163759784025996356110000006875966985200593582_">
		<line class="st6" x1="1007.15" x2="1007.15" y1="1588.52" y2="1581.94" />
	</g>
	<g id="LWPOLYLINE_00000153698842336175274770000009277189897880603317_">
		<rect class="st6" height="10.97" width="17.55" x="836.03" y="1072.97" />
	</g>
	<g id="LWPOLYLINE_00000080886801023565628560000015031369644155387539_">
		<rect class="st6" height="10.97" width="17.55" x="836.03" y="886.49" />
	</g>
	<g id="LINE_00000171706282625334955720000003946138698273039272_">
		<line class="st6" x1="836.03" x2="853.59" y1="1083.94" y2="1083.94" />
	</g>
	<g id="LINE_00000143577569565997660850000003411325591297820074_">
		<line class="st6" x1="836.03" x2="853.59" y1="886.49" y2="886.49" />
	</g>
	<g id="LINE_00000036243588400176451230000001107802187097321136_">
		<line class="st6" x1="836.03" x2="660.53" y1="1072.97" y2="1072.97" />
	</g>
	<g id="LINE_00000165221874094517211770000011681378336358963634_">
		<line class="st6" x1="660.53" x2="660.53" y1="1066.39" y2="1072.97" />
	</g>
	<g id="ARC_00000111895937686439940970000012697203218481039750_">
		<path class="st6" d="M660.53,1066.39c3.65-94.3,81.14-168.88,175.51-168.93" />
	</g>
	<g id="ARC_00000172419409834019515660000011570770698908108709_">
		<path class="st6" d="M621.72,370.01c-1.27,85.11,66.69,155.14,151.8,156.41c0.76,0.01,1.53,0.02,2.29,0.02" />
	</g>
	<g id="LINE_00000108266617145316010860000000186764315215445126_">
		<line class="st6" x1="775.81" x2="775.81" y1="370.01" y2="526.44" />
	</g>
	<g id="LINE_00000165216822023097530260000002872636450080661179_">
		<line class="st6" x1="605.38" x2="621.72" y1="370.01" y2="370.01" />
	</g>
	<g id="LINE_00000053528320552967775190000004829273053450909314_">
		<line class="st6" x1="621.72" x2="621.72" y1="370.01" y2="349" />
	</g>
	<g id="LINE_00000048499744381709283190000003257301407008286870_">
		<line class="st6" x1="621.72" x2="605.38" y1="349" y2="349" />
	</g>
	<g id="LINE_00000178181194856390816590000009484847794325342378_">
		<line class="st6" x1="792.16" x2="775.81" y1="349" y2="349" />
	</g>
	<g id="LINE_00000097496740840544167880000005486895805016479643_">
		<line class="st6" x1="775.81" x2="775.81" y1="349" y2="370.01" />
	</g>
	<g id="LINE_00000114036211332260264190000003905095318574511514_">
		<line class="st6" x1="775.81" x2="792.16" y1="370.01" y2="370.01" />
	</g>
	<g id="LINE_00000149370102095160724720000006425004001468076454_">
		<line class="st6" x1="792.16" x2="792.16" y1="349" y2="370.01" />
	</g>
	<g id="LINE_00000070098354205248089540000002993028488947492506_">
		<line class="st6" x1="1176.08" x2="1439.34" y1="200.08" y2="200.08" />
	</g>
	<g id="LINE_00000081613091007788083260000010055971798671210134_">
		<line class="st6" x1="1439.34" x2="1439.34" y1="200.08" y2="319.38" />
	</g>
	<g id="LINE_00000083054061058299341270000013558789822179144343_">
		<line class="st6" x1="1176.08" x2="1176.08" y1="319.38" y2="200.08" />
	</g>
	<g id="LWPOLYLINE_00000029038692085355285040000015627352333597286307_">
		<line class="st6" x1="1439.34" x2="1176.08" y1="319.38" y2="200.08" />
	</g>
	<g id="LWPOLYLINE_00000061470756291321392450000010993952040567822245_">
		<line class="st6" x1="1176.08" x2="1439.34" y1="319.38" y2="200.08" />
	</g>
	<polygon points="818.48,319.38 818.48,134 818.48,100 774.61,100 774.61,134 784.48,134 784.48,319.38 781.19,319.38 781.19,349    792.16,349 792.16,392.88 836.03,392.88 836.03,886.49 853.59,886.49 853.59,392.88 945.73,392.88 945.73,349 956.7,349    956.7,319.38  " />
	<path d="M853.59,1599.49h-17.55v59.23H243.7V1452.5v-21.94h-15.36h-50.46v-186.48h17.55h640.6v179.89h17.55v-340.05h-17.55v144.79   h-640.6h-17.55v-164.54h-4.39v-78.98v-43.88h-43.88v-12.07H100v12.07v43.88v78.98v394.89v243.52h73.49h934.58v-43.88H853.59   V1599.49z M228.34,1544.65v43.88h-54.85v-43.88H228.34z M173.49,1533.68v-43.88h54.85v43.88H173.49z M177.88,1459.09v-13.16h50.46   v6.58v26.33h-54.85v-19.74H177.88z M173.49,1658.73v-54.85h54.85v54.85H173.49z" />
	<path d="M1439.34,319.38V349h10.97v43.88h122.85v351.02h4.39v563.82h-4.39v72.4h-478.26v15.36h379.53v163.44v10.97v88.85h-146.99   v43.88h293.98v-43.88v-351.01V743.89V392.88V349v-29.62h-171.12H1439.34z M1573.17,1395.46v54.85h-83.37v-54.85H1573.17z    M1573.17,1465.83v65.65h-83.37v-65.65H1573.17z M1489.8,1558.91v-16.45h83.37v65.82h-83.37v-38.39V1558.91z M1489.8,1658.73   v-39.49h83.37v39.49H1489.8z" />
	<polygon points="129.62,743.89 173.49,743.89 177.88,743.89 177.88,392.88 185.56,392.88 265.64,392.88 265.64,349 276.6,349    276.6,319.38 185.56,319.38 185.56,100 100,100 100,392.88 100,743.89 100,754.86 129.62,754.86  " />
</g>
<g id="su">
	<g>
		<path class="st7" d="M355.58,1516.42L355.58,1516.42c21.2,0,38.39,17.19,38.39,38.39v68.82h-76.78v-68.82    C317.19,1533.61,334.38,1516.42,355.58,1516.42z" />
		
			<rect class="st7" height="35.1" transform="matrix(-1 7.739250e-13 -7.739250e-13 -1 711.1626 3282.3503)" width="131.63" x="289.77" y="1623.62" />
		<path class="st7" d="M355.58,1523.22L355.58,1523.22c17.57,0,31.81,14.24,31.81,31.81v53.23c0,3.64-2.95,6.58-6.58,6.58h-50.46    c-3.64,0-6.58-2.95-6.58-6.58v-53.23C323.77,1537.47,338.01,1523.22,355.58,1523.22z" />
	</g>
	<g>
		<g>
			<rect class="st7" height="21.94" width="131.63" x="704.4" y="1353.78" />
			<rect class="st7" height="109.69" width="131.63" x="704.4" y="1244.09" />
			<g id="CIRCLE_00000067214086630991104820000017019178802201838751_">
				<circle class="st7" cx="770.22" cy="1298.94" r="43.88" />
			</g>
			<g id="CIRCLE_00000030486240794934729930000003659875492726941117_">
				<circle class="st7" cx="770.22" cy="1298.94" r="37.3" />
			</g>
			<g id="CIRCLE_00000039830085072168534140000006551095081264125839_">
				<circle class="st7" cx="818.48" cy="1364.75" r="4.39" />
			</g>
			<g id="CIRCLE_00000128461485696705886570000000623064210555674264_">
				<circle class="st7" cx="757.05" cy="1364.75" r="6.58" />
			</g>
			<g id="CIRCLE_00000018952313095481538600000006902879300995050664_">
				<circle class="st7" cx="739.5" cy="1364.75" r="6.58" />
			</g>
			<g id="CIRCLE_00000010269966543155916250000003034384556501083028_">
				<circle class="st7" cx="721.95" cy="1364.75" r="6.58" />
			</g>
		</g>
		<g>
			<rect class="st7" height="17.55" width="6.58" x="726.34" y="1244.09" />
			<rect class="st7" height="4.39" width="6.58" x="726.34" y="1261.64" />
			<rect class="st7" height="17.55" width="6.58" x="807.51" y="1244.09" />
			<rect class="st7" height="4.39" width="6.58" x="807.51" y="1261.64" />
			
				<rect class="st7" height="4.39" transform="matrix(-1 -1.224647e-16 1.224647e-16 -1 1540.4354 2527.668)" width="74.59" x="732.92" y="1261.64" />
		</g>
	</g>
	<g>
		
			<rect class="st7" height="98.72" transform="matrix(-1 -1.224647e-16 1.224647e-16 -1 1055.5961 3218.7288)" width="131.64" x="461.98" y="1560" />
		
			<rect class="st7" height="65.82" transform="matrix(-1 -1.224647e-16 1.224647e-16 -1 1055.641 3197.3733)" width="120.66" x="467.49" y="1565.78" />
		<path class="st7" d="M527.82,1617.18L527.82,1617.18c2.14,0,3.88,1.74,3.88,3.88v22.75c0,2.14-1.74,3.88-3.88,3.88l0,0    c-2.14,0-3.88-1.74-3.88-3.88v-22.75C523.94,1618.92,525.68,1617.18,527.82,1617.18z" />
		<circle class="st7" cx="527.82" cy="1599.11" r="5.16" />
	</g>
	<g>
		
			<rect class="st7" height="131.63" transform="matrix(-1.836970e-16 1 -1 -1.836970e-16 2529.8604 -493.6133)" width="131.63" x="1445.92" y="952.31" />
		<path class="st7" d="M1561.4,962.18h-87.02c-3.43,0-6.22,2.78-6.22,6.22v43.51c0,3.43-2.78,6.22-6.22,6.22h0    c-3.43,0-6.22,2.78-6.22,6.22v43.51c0,3.43,2.78,6.22,6.22,6.22h99.45c3.43,0,6.22-2.78,6.22-6.22V968.4    C1567.62,964.96,1564.84,962.18,1561.4,962.18z" />
		<path class="st7" d="M1451.93,1006.03v-39.22c0-2.86,2.32-5.18,5.18-5.18l0,0c2.86,0,5.18,2.32,5.18,5.18v39.22    c0,2.86-2.32,5.18-5.18,5.18l0,0C1454.25,1011.21,1451.93,1008.89,1451.93,1006.03z" />
		<circle class="st7" cx="1539.65" cy="990.15" r="20.72" />
		<circle class="st7" cx="1488.88" cy="1046.09" r="20.72" />
		<circle class="st7" cx="1488.88" cy="990.15" r="15.54" />
		<circle class="st7" cx="1539.65" cy="1046.09" r="15.54" />
	</g>
	<g>
		
			<rect class="st7" height="118.47" transform="matrix(-1.836970e-16 1 -1 -1.836970e-16 2668.0725 -368.5642)" width="131.63" x="1452.5" y="1090.52" />
		
			<rect class="st7" height="13.16" transform="matrix(-1.836970e-16 1 -1 -1.836970e-16 2602.2573 -302.7489)" width="131.63" x="1386.69" y="1143.17" />
		<circle class="st7" cx="1518.32" cy="1149.75" r="38.39" />
		<line class="st7" x1="1553.22" x2="1483.41" y1="1184.66" y2="1114.85" />
		<line class="st7" x1="1483.41" x2="1553.22" y1="1184.66" y2="1114.85" />
	</g>
	<g>
		
			<rect class="st7" height="118.47" transform="matrix(-1 -1.224647e-16 1.224647e-16 -1 2321.4438 2641.748)" width="131.63" x="1094.91" y="1261.64" />
		
			<rect class="st7" height="13.16" transform="matrix(-1 -1.224647e-16 1.224647e-16 -1 2321.4438 2510.1174)" width="131.63" x="1094.91" y="1248.48" />
		<polygon class="st7" points="1165.17,1327 1167.3,1348.3 1154.14,1348.3 1156.27,1327 1136.67,1335.61 1132.61,1323.09     1153.52,1318.53 1139.28,1302.56 1149.93,1294.82 1160.72,1313.3 1171.52,1294.82 1182.17,1302.56 1167.93,1318.53     1188.84,1323.09 1184.77,1335.61   " />
		<path class="st7" d="M1094.91,1248.48l114-65.82c0,0,15.88,18.53,17.64,65.82H1094.91z" />
	</g>
	<g>
		
			<rect class="st7" height="372.95" transform="matrix(4.466656e-11 -1 1 4.466656e-11 -956.5173 1685.2307)" width="153.57" x="287.57" y="1134.4" />
		<g id="ARC_00000019669005615991149180000009292191005284679823_">
			<path class="st7" d="M191.03,1328.45c-0.73,0.11-1.48,0.11-2.21,0c-4.18-0.61-7.08-4.5-6.47-8.68s4.5-7.08,8.68-6.47l26.79,3.91     c1.24,0.37,2.21,1.34,2.58,2.58c0.6,2.03-0.55,4.16-2.58,4.76L191.03,1328.45z" />
		</g>
		<path class="st7" d="M191.04,1288.19v25.11l26.78,3.91c1.24,0.37,2.21,1.34,2.58,2.58c0.6,2.03-0.55,4.16-2.58,4.76l-26.78,3.91    v25.33c0,16.96,13.75,30.71,30.71,30.71H476.2c33.95,0,61.47-27.52,61.47-61.47c0-36.32-29.45-65.77-65.77-65.77H221.98    C204.9,1257.25,191.04,1271.1,191.04,1288.19z" />
		<path class="st7" d="M212.82,1288.12v28.36l5,0.73c1.24,0.37,2.21,1.34,2.58,2.58c0.6,2.03-0.55,4.16-2.58,4.76l-5,0.73v28.51    c0,4.85,3.93,8.78,8.78,8.78h199.69c18.29,0,33.11-14.82,33.11-33.11v-17.35c0-18.17-14.73-32.91-32.91-32.91H221.75    C216.82,1279.19,212.82,1283.19,212.82,1288.12z" />
		<g id="ARC_00000074405330720252226800000004514687891794681744_">
			<path class="st7" d="M191.03,1328.45c-0.73,0.11-1.48,0.11-2.21,0c-4.18-0.61-7.08-4.5-6.47-8.68s4.5-7.08,8.68-6.47l26.79,3.91     c1.24,0.37,2.21,1.34,2.58,2.58c0.6,2.03-0.55,4.16-2.58,4.76L191.03,1328.45z" />
		</g>
		<circle class="st7" cx="231.63" cy="1320.87" r="6.51" />
	</g>
	<g>
		<polygon class="st7" points="1413.01,1248.48 1413.01,1380.11 1573.16,1380.11 1573.16,1307.71 1577.55,1307.71 1577.55,1215.57     1445.92,1215.57   " />
		<g id="ARC_00000088108504026674131810000010466048198407776135_">
			<path class="st7" d="M1543.73,1338.17c0.45,0.34,0.85,0.74,1.19,1.19c1.92,2.57,1.39,6.21-1.19,8.13     c-2.57,1.92-6.21,1.39-8.13-1.19l-12.27-16.47c-0.47-0.86-0.47-1.9,0-2.76c0.76-1.41,2.53-1.94,3.94-1.17L1543.73,1338.17z" />
		</g>
		<path class="st7" d="M1530.41,1339.34l-7.09-9.51c-0.47-0.86-0.47-1.9,0-2.76c0.76-1.41,2.52-1.94,3.94-1.17l9.51,7.09    c8.04-9.48,12.92-21.74,12.92-35.15c0-30.05-24.36-54.41-54.41-54.41c-30.05,0-54.41,24.36-54.41,54.41    c0,30.05,24.36,54.41,54.41,54.41C1508.68,1352.25,1520.93,1347.38,1530.41,1339.34z" />
		<path class="st7" d="M1530.41,1339.34l-7.09-9.51c-0.47-0.86-0.47-1.9,0-2.76c0.76-1.41,2.52-1.94,3.94-1.17l9.51,7.09    c8.04-9.48,12.92-21.74,12.92-35.15c0-30.05-24.36-54.41-54.41-54.41c-30.05,0-54.41,24.36-54.41,54.41    c0,30.05,24.36,54.41,54.41,54.41C1508.68,1352.25,1520.93,1347.38,1530.41,1339.34z" />
		<path class="st7" d="M1523.33,1329.84c-0.47-0.86-0.47-1.9,0-2.76c0.76-1.41,2.52-1.94,3.94-1.17l4.05,3.02    c7.21-8.34,11.59-19.19,11.59-31.08c0-26.3-21.32-47.62-47.62-47.62c-26.3,0-47.62,21.32-47.62,47.62    c0,26.3,21.32,47.62,47.62,47.62c11.88,0,22.72-4.38,31.06-11.58L1523.33,1329.84z" />
		<circle class="st7" cx="1495.28" cy="1297.84" r="7.21" />
	</g>
	<g>
		<g>
			<g>
				<line class="st8" x1="1577.55" x2="1572.55" y1="985.22" y2="985.22" />
				<line class="st9" x1="1562.5" x2="863.61" y1="985.22" y2="985.22" />
				<polyline class="st8" points="858.59,985.22 853.59,985.22 853.59,980.22     " />
				<line class="st10" x1="853.59" x2="853.59" y1="969.11" y2="908.02" />
				<line class="st8" x1="853.59" x2="853.59" y1="902.46" y2="897.46" />
			</g>
		</g>
	</g>
	<g>
		<g>
			<g>
				<line class="st8" x1="1094.91" x2="1089.91" y1="1395.46" y2="1395.46" />
				<line class="st11" x1="1079.85" x2="863.61" y1="1395.46" y2="1395.46" />
				<line class="st8" x1="858.59" x2="853.59" y1="1395.46" y2="1395.46" />
			</g>
		</g>
	</g>
</g>
<g id="sq">
	<g>
		<path class="st7" d="M374.88,816.41h351.02V565.69H374.88V816.41z" />
		<path class="st7" d="M374.88,686.23h351.02" />
	</g>
	<text class="st12 st13" transform="matrix(1 0 0 1 505.8257 665.9818)">2</text>
	<text class="st12 st14" transform="matrix(1 0 0 1 456.5865 784.9896)">36,4</text>
</g>
<g id="text">
	<text class="st15 st16" transform="matrix(1 0 0 1 1189.853 1564.392)">3,5</text>
	<text class="st15 st16" transform="matrix(1 0 0 1 622.7456 1533.681)">4,8</text>
	<text class="st15 st16" transform="matrix(1 0 0 1 1177.7866 735.2747)">9,3</text>
	<text class="st15 st16" transform="matrix(1 0 0 1 1189.853 1149.7474)">5,8</text>
	<text class="st15 st16" transform="matrix(1 0 0 1 449.1753 981.9232)">11,7</text>
	<text class="st15 st16" transform="matrix(1 0 0 1 446.1402 259.7357)">1,3</text>
</g>
</svg>